<svg xmlns="http://www.w3.org/2000/svg" xmlns:xlink="http://www.w3.org/1999/xlink" width="1080" zoomAndPan="magnify" viewBox="0 0 810 809.999993" height="1080" preserveAspectRatio="xMidYMid meet" version="1.0"><defs><g/><clipPath id="id1"><path d="M 34.792969 34.792969 L 775.042969 34.792969 L 775.042969 775.042969 L 34.792969 775.042969 Z M 34.792969 34.792969 " clip-rule="nonzero"/></clipPath></defs><rect x="-81" width="972" fill="#ffffff" y="-80.999999" height="971.999992" fill-opacity="1"/><rect x="-81" width="972" fill="#ffffff" y="-80.999999" height="971.999992" fill-opacity="1"/><rect x="-81" width="972" fill="#ffffff" y="-80.999999" height="971.999992" fill-opacity="1"/><rect x="-81" width="972" fill="#ffffff" y="-80.999999" height="971.999992" fill-opacity="1"/><g clip-path="url(#id1)"><path fill="#b1a892" d="M 726.90625 775.042969 L 82.929688 775.042969 C 56.40625 775.042969 34.792969 753.429688 34.792969 726.90625 L 34.792969 82.929688 C 34.792969 56.40625 56.40625 34.792969 82.929688 34.792969 L 726.90625 34.792969 C 753.429688 34.792969 775.042969 56.40625 775.042969 82.929688 L 775.042969 726.90625 C 775.042969 753.429688 753.429688 775.042969 726.90625 775.042969 " fill-opacity="1" fill-rule="nonzero"/></g><g fill="#000000" fill-opacity="1"><g transform="translate(136.277524, 292.129078)"><g><path d="M 77.484375 0 L 69.875 -24.984375 L 31.59375 -24.984375 L 23.984375 0 L 0 0 L 37.0625 -105.421875 L 64.28125 -105.421875 L 101.46875 0 Z M 64.5625 -43.65625 C 57.519531 -66.300781 53.554688 -79.109375 52.671875 -82.078125 C 51.785156 -85.046875 51.15625 -87.394531 50.78125 -89.125 C 49.195312 -83 44.671875 -67.84375 37.203125 -43.65625 Z M 64.5625 -43.65625 "/></g></g></g><g fill="#000000" fill-opacity="1"><g transform="translate(237.747417, 292.129078)"><g><path d="M 100.328125 -53.5 C 100.328125 -36.21875 95.40625 -22.976562 85.5625 -13.78125 C 75.726562 -4.59375 61.523438 0 42.953125 0 L 13.21875 0 L 13.21875 -105 L 46.171875 -105 C 63.316406 -105 76.628906 -100.472656 86.109375 -91.421875 C 95.585938 -82.367188 100.328125 -69.726562 100.328125 -53.5 Z M 77.203125 -52.921875 C 77.203125 -75.472656 67.242188 -86.75 47.328125 -86.75 L 35.484375 -86.75 L 35.484375 -18.390625 L 45.03125 -18.390625 C 66.476562 -18.390625 77.203125 -29.898438 77.203125 -52.921875 Z M 77.203125 -52.921875 "/></g></g></g><g fill="#000000" fill-opacity="1"><g transform="translate(346.613924, 292.129078)"><g><path d="M 13.21875 0 L 13.21875 -105 L 35.484375 -105 L 35.484375 0 Z M 13.21875 0 "/></g></g></g><g fill="#000000" fill-opacity="1"><g transform="translate(395.302238, 292.129078)"><g><path d="M 53.71875 0 L 31.453125 0 L 31.453125 -86.46875 L 2.9375 -86.46875 L 2.9375 -105 L 82.234375 -105 L 82.234375 -86.46875 L 53.71875 -86.46875 Z M 53.71875 0 "/></g></g></g><g fill="#000000" fill-opacity="1"><g transform="translate(480.470881, 292.129078)"><g><path d="M 45.890625 -61.765625 L 67.796875 -105 L 91.78125 -105 L 56.953125 -40.859375 L 56.953125 0 L 34.828125 0 L 34.828125 -40.140625 L 0 -105 L 24.125 -105 Z M 45.890625 -61.765625 "/></g></g></g><g fill="#000000" fill-opacity="1"><g transform="translate(572.246221, 292.129078)"><g><path d="M 77.484375 0 L 69.875 -24.984375 L 31.59375 -24.984375 L 23.984375 0 L 0 0 L 37.0625 -105.421875 L 64.28125 -105.421875 L 101.46875 0 Z M 64.5625 -43.65625 C 57.519531 -66.300781 53.554688 -79.109375 52.671875 -82.078125 C 51.785156 -85.046875 51.15625 -87.394531 50.78125 -89.125 C 49.195312 -83 44.671875 -67.84375 37.203125 -43.65625 Z M 64.5625 -43.65625 "/></g></g></g><g fill="#000000" fill-opacity="1"><g transform="translate(45.035341, 462.37907)"><g><path d="M 35.125 0 L 13.21875 0 L 13.21875 -105 L 73.390625 -105 L 73.390625 -86.75 L 35.125 -86.75 L 35.125 -59.671875 L 70.734375 -59.671875 L 70.734375 -41.515625 L 35.125 -41.515625 Z M 35.125 0 "/></g></g></g><g fill="#000000" fill-opacity="1"><g transform="translate(125.75166, 462.37907)"><g><path d="M 77.484375 0 L 69.875 -24.984375 L 31.59375 -24.984375 L 23.984375 0 L 0 0 L 37.0625 -105.421875 L 64.28125 -105.421875 L 101.46875 0 Z M 64.5625 -43.65625 C 57.519531 -66.300781 53.554688 -79.109375 52.671875 -82.078125 C 51.785156 -85.046875 51.15625 -87.394531 50.78125 -89.125 C 49.195312 -83 44.671875 -67.84375 37.203125 -43.65625 Z M 64.5625 -43.65625 "/></g></g></g><g fill="#000000" fill-opacity="1"><g transform="translate(227.221554, 462.37907)"><g><path d="M 100.328125 -53.5 C 100.328125 -36.21875 95.40625 -22.976562 85.5625 -13.78125 C 75.726562 -4.59375 61.523438 0 42.953125 0 L 13.21875 0 L 13.21875 -105 L 46.171875 -105 C 63.316406 -105 76.628906 -100.472656 86.109375 -91.421875 C 95.585938 -82.367188 100.328125 -69.726562 100.328125 -53.5 Z M 77.203125 -52.921875 C 77.203125 -75.472656 67.242188 -86.75 47.328125 -86.75 L 35.484375 -86.75 L 35.484375 -18.390625 L 45.03125 -18.390625 C 66.476562 -18.390625 77.203125 -29.898438 77.203125 -52.921875 Z M 77.203125 -52.921875 "/></g></g></g><g fill="#000000" fill-opacity="1"><g transform="translate(336.088061, 462.37907)"><g><path d="M 13.21875 0 L 13.21875 -105 L 35.484375 -105 L 35.484375 0 Z M 13.21875 0 "/></g></g></g><g fill="#000000" fill-opacity="1"><g transform="translate(384.776375, 462.37907)"><g><path d="M 13.21875 0 L 13.21875 -105 L 35.484375 -105 L 35.484375 -18.390625 L 78.0625 -18.390625 L 78.0625 0 Z M 13.21875 0 "/></g></g></g><g fill="#000000" fill-opacity="1"><g transform="translate(467.862469, 462.37907)"><g><path d="M 13.21875 0 L 13.21875 -105 L 35.484375 -105 L 35.484375 -18.390625 L 78.0625 -18.390625 L 78.0625 0 Z M 13.21875 0 "/></g></g></g><g fill="#000000" fill-opacity="1"><g transform="translate(550.948585, 462.37907)"><g><path d="M 77.484375 0 L 69.875 -24.984375 L 31.59375 -24.984375 L 23.984375 0 L 0 0 L 37.0625 -105.421875 L 64.28125 -105.421875 L 101.46875 0 Z M 64.5625 -43.65625 C 57.519531 -66.300781 53.554688 -79.109375 52.671875 -82.078125 C 51.785156 -85.046875 51.15625 -87.394531 50.78125 -89.125 C 49.195312 -83 44.671875 -67.84375 37.203125 -43.65625 Z M 64.5625 -43.65625 "/></g></g></g><g fill="#000000" fill-opacity="1"><g transform="translate(652.418489, 462.37907)"><g><path d="M 99.25 0 L 77.0625 0 L 77.0625 -45.3125 L 35.484375 -45.3125 L 35.484375 0 L 13.21875 0 L 13.21875 -105 L 35.484375 -105 L 35.484375 -63.84375 L 77.0625 -63.84375 L 77.0625 -105 L 99.25 -105 Z M 99.25 0 "/></g></g></g><g fill="#000000" fill-opacity="1"><g transform="translate(212.109551, 632.629061)"><g><path d="M 77.484375 0 L 69.875 -24.984375 L 31.59375 -24.984375 L 23.984375 0 L 0 0 L 37.0625 -105.421875 L 64.28125 -105.421875 L 101.46875 0 Z M 64.5625 -43.65625 C 57.519531 -66.300781 53.554688 -79.109375 52.671875 -82.078125 C 51.785156 -85.046875 51.15625 -87.394531 50.78125 -89.125 C 49.195312 -83 44.671875 -67.84375 37.203125 -43.65625 Z M 64.5625 -43.65625 "/></g></g></g><g fill="#000000" fill-opacity="1"><g transform="translate(313.579445, 632.629061)"><g><path d="M 81.65625 0 L 3.515625 0 L 3.515625 -14.4375 L 53.859375 -86.609375 L 4.890625 -86.609375 L 4.890625 -105 L 80.296875 -105 L 80.296875 -90.625 L 30.015625 -18.390625 L 81.65625 -18.390625 Z M 81.65625 0 "/></g></g></g><g fill="#000000" fill-opacity="1"><g transform="translate(398.748088, 632.629061)"><g><path d="M 97.671875 0 L 72.390625 0 L 44.890625 -44.234375 L 35.484375 -37.484375 L 35.484375 0 L 13.21875 0 L 13.21875 -105 L 35.484375 -105 L 35.484375 -56.953125 L 44.234375 -69.296875 L 72.671875 -105 L 97.375 -105 L 60.75 -58.53125 Z M 97.671875 0 "/></g></g></g><g fill="#000000" fill-opacity="1"><g transform="translate(496.411951, 632.629061)"><g><path d="M 77.484375 0 L 69.875 -24.984375 L 31.59375 -24.984375 L 23.984375 0 L 0 0 L 37.0625 -105.421875 L 64.28125 -105.421875 L 101.46875 0 Z M 64.5625 -43.65625 C 57.519531 -66.300781 53.554688 -79.109375 52.671875 -82.078125 C 51.785156 -85.046875 51.15625 -87.394531 50.78125 -89.125 C 49.195312 -83 44.671875 -67.84375 37.203125 -43.65625 Z M 64.5625 -43.65625 "/></g></g></g></svg>